<svg id="svg" version="1.1" width="400" height="158.17351598173516" viewBox="0 0 400 158.17351598173516" xmlns="http://www.w3.org/2000/svg" xmlns:xlink="http://www.w3.org/1999/xlink" ><g id="svgg"><path id="path0" d="M56.667 79.750 L 56.667 108.000 65.083 108.000 L 73.500 108.000 73.512 97.292 C 73.522 87.734,73.549 86.655,73.765 87.250 C 73.898 87.617,74.120 88.157,74.258 88.451 C 74.396 88.745,74.758 89.795,75.063 90.784 C 75.367 91.774,75.768 92.921,75.953 93.333 C 76.138 93.746,76.646 95.208,77.083 96.583 C 77.519 97.958,77.933 99.158,78.003 99.250 C 78.111 99.390,78.932 101.839,79.524 103.781 C 79.613 104.073,79.740 104.335,79.808 104.364 C 79.875 104.393,80.158 105.167,80.437 106.083 L 80.944 107.750 90.722 107.793 L 100.500 107.836 100.500 79.668 L 100.500 51.500 91.833 51.500 L 83.167 51.500 83.150 61.792 L 83.134 72.083 82.575 70.333 C 82.268 69.371,81.942 68.461,81.852 68.311 C 81.762 68.162,81.339 66.887,80.911 65.478 C 80.484 64.069,80.074 62.842,80.000 62.750 C 79.927 62.658,79.512 61.421,79.078 60.000 C 78.644 58.579,78.241 57.379,78.182 57.333 C 78.123 57.288,77.950 56.837,77.799 56.333 C 77.647 55.829,77.251 54.535,76.919 53.458 L 76.315 51.500 66.491 51.500 L 56.667 51.500 56.667 79.750 M172.518 52.375 C 172.423 52.856,172.153 54.375,171.918 55.750 C 171.684 57.125,171.422 58.400,171.338 58.583 C 171.178 58.931,169.500 68.282,169.500 68.827 C 169.500 68.999,169.432 69.164,169.350 69.194 C 169.267 69.225,169.030 70.278,168.822 71.534 C 168.393 74.121,168.293 74.218,168.000 72.336 C 167.886 71.601,167.741 71.000,167.679 71.000 C 167.616 71.000,167.470 70.419,167.353 69.708 C 166.721 65.857,165.798 60.874,165.663 60.583 C 165.577 60.400,165.276 58.900,164.993 57.250 C 164.710 55.600,164.371 53.688,164.239 53.000 C 164.108 52.313,164.000 51.731,164.000 51.708 C 164.000 51.685,158.637 51.667,152.083 51.667 L 140.167 51.667 140.167 80.250 L 140.167 108.833 148.750 108.833 L 157.333 108.833 157.353 97.875 C 157.371 87.922,157.395 87.031,157.608 88.167 C 157.738 88.854,157.916 89.567,158.003 89.750 C 158.149 90.055,159.307 96.000,159.587 97.875 C 159.651 98.310,159.756 98.667,159.818 98.667 C 159.881 98.667,160.024 99.210,160.136 99.875 C 160.831 103.988,161.741 108.431,161.926 108.616 C 162.308 108.998,173.951 108.927,174.061 108.542 C 174.107 108.381,174.353 106.975,174.609 105.417 C 174.864 103.858,175.122 102.546,175.182 102.500 C 175.242 102.454,175.678 100.092,176.151 97.250 C 176.624 94.408,177.083 91.933,177.170 91.750 C 177.258 91.567,177.510 90.367,177.730 89.083 L 178.131 86.750 178.149 97.792 L 178.167 108.833 186.833 108.833 L 195.500 108.833 195.500 80.167 L 195.500 51.500 184.095 51.500 L 172.690 51.500 172.518 52.375 M0.109 53.292 C 0.050 54.185,0.001 66.785,0.001 81.292 L 0.000 107.667 15.333 107.667 L 30.667 107.667 30.667 100.000 L 30.667 92.333 24.417 92.333 L 18.167 92.333 18.167 72.000 L 18.167 51.667 9.192 51.667 L 0.217 51.667 0.109 53.292 M34.333 79.833 L 34.333 108.000 43.083 108.000 L 51.833 108.000 51.833 79.833 L 51.833 51.667 43.083 51.667 L 34.333 51.667 34.333 79.833 M105.500 80.000 L 105.500 108.333 120.750 108.333 L 136.000 108.333 136.000 101.000 L 136.000 93.667 129.417 93.667 L 122.833 93.667 122.833 90.833 L 122.833 88.000 128.917 88.000 L 135.000 88.000 135.000 80.417 L 135.000 72.833 129.000 72.833 L 123.000 72.833 123.000 70.083 L 123.000 67.333 129.417 67.333 L 135.833 67.333 135.833 59.500 L 135.833 51.667 120.667 51.667 L 105.500 51.667 105.500 80.000 M208.442 56.125 C 208.005 58.577,207.579 60.733,207.496 60.917 C 207.412 61.100,207.001 63.163,206.582 65.500 C 206.162 67.837,205.750 69.900,205.667 70.083 C 205.583 70.267,205.122 72.629,204.643 75.333 C 204.164 78.037,203.726 80.287,203.671 80.333 C 203.567 80.419,203.432 81.123,202.481 86.500 C 202.181 88.196,201.886 89.621,201.825 89.667 C 201.739 89.732,200.460 96.573,200.034 99.250 C 199.990 99.525,199.905 99.787,199.845 99.833 C 199.784 99.879,199.527 101.079,199.272 102.500 C 199.018 103.921,198.665 105.871,198.488 106.833 C 198.312 107.796,198.167 108.715,198.167 108.875 C 198.167 109.149,198.706 109.167,207.167 109.167 C 212.790 109.167,216.167 109.107,216.167 109.007 C 216.167 108.566,217.032 103.871,217.166 103.583 C 217.252 103.400,217.402 102.763,217.500 102.167 C 217.598 101.571,217.719 100.877,217.769 100.625 L 217.860 100.167 221.752 100.167 C 225.318 100.167,225.651 100.191,225.723 100.458 C 225.766 100.619,225.933 101.462,226.093 102.333 C 226.254 103.204,226.436 103.954,226.498 104.000 C 226.560 104.046,226.826 105.227,227.090 106.625 L 227.569 109.167 236.535 109.167 L 245.500 109.167 245.500 108.787 C 245.500 108.578,245.194 106.797,244.820 104.829 C 244.447 102.860,244.097 100.987,244.045 100.667 C 243.992 100.346,243.897 100.046,243.834 100.000 C 243.771 99.954,243.518 98.792,243.271 97.417 C 242.406 92.595,241.942 90.249,241.838 90.167 C 241.781 90.121,241.371 88.096,240.929 85.667 C 240.486 83.237,240.066 81.175,239.994 81.083 C 239.923 80.992,239.518 79.004,239.096 76.667 C 238.674 74.329,238.259 72.267,238.175 72.083 C 238.010 71.722,237.633 69.851,236.835 65.417 C 236.555 63.858,236.255 62.433,236.169 62.250 C 236.084 62.067,235.660 60.004,235.227 57.667 C 234.795 55.329,234.389 53.379,234.327 53.333 C 234.264 53.288,234.160 52.894,234.096 52.458 L 233.980 51.667 221.608 51.667 L 209.236 51.667 208.442 56.125 M262.414 51.827 C 259.295 52.107,255.237 53.564,253.636 54.980 C 252.743 55.770,249.704 58.794,249.151 59.442 C 248.527 60.175,247.207 62.990,246.875 64.297 C 246.203 66.940,246.583 74.369,247.494 76.417 C 247.658 76.783,247.886 77.383,248.002 77.750 C 248.664 79.845,250.269 81.822,252.250 82.979 C 252.892 83.354,253.567 83.781,253.750 83.929 C 253.933 84.076,254.796 84.546,255.667 84.973 C 256.537 85.401,257.287 85.796,257.333 85.852 C 257.508 86.065,258.533 86.517,259.866 86.968 C 263.109 88.067,264.525 90.205,263.269 92.107 C 262.018 94.003,261.812 94.080,258.948 93.732 C 257.739 93.585,256.712 93.408,256.667 93.340 C 256.621 93.271,256.283 93.119,255.917 93.001 C 254.968 92.697,252.667 91.525,252.667 91.346 C 252.667 91.264,252.310 91.027,251.875 90.819 C 251.440 90.611,250.392 90.005,249.548 89.471 C 247.093 87.919,247.333 87.156,247.333 96.507 L 247.333 104.515 247.708 104.892 C 248.185 105.372,249.269 106.167,249.447 106.167 C 249.522 106.167,249.804 106.357,250.073 106.588 C 250.698 107.126,252.518 108.047,253.542 108.343 C 253.977 108.470,254.333 108.621,254.333 108.679 C 254.333 109.498,269.047 109.489,270.917 108.670 C 271.100 108.590,271.662 108.395,272.167 108.238 C 273.819 107.723,275.184 106.814,276.667 105.243 C 276.804 105.098,277.340 104.533,277.857 103.989 C 278.374 103.444,279.049 102.493,279.357 101.874 C 279.665 101.256,279.982 100.703,280.061 100.645 C 280.531 100.303,281.664 94.588,281.666 92.552 C 281.666 92.076,281.742 91.640,281.833 91.583 C 282.037 91.457,282.060 87.833,281.857 87.833 C 281.778 87.833,281.672 87.440,281.622 86.958 C 281.491 85.710,280.527 82.880,280.061 82.377 C 279.844 82.143,279.667 81.878,279.667 81.788 C 279.667 80.914,275.058 76.333,274.178 76.333 C 274.080 76.333,274.000 76.254,274.000 76.156 C 274.000 75.889,272.064 75.066,270.486 74.663 C 269.716 74.466,269.048 74.256,269.001 74.194 C 268.955 74.133,268.343 73.801,267.642 73.455 C 263.730 71.526,264.545 67.572,268.867 67.513 C 270.322 67.493,272.846 68.164,273.163 68.655 C 273.211 68.729,273.957 69.137,274.820 69.561 C 275.684 69.986,276.512 70.443,276.659 70.577 C 276.946 70.836,278.734 71.667,279.005 71.667 C 279.107 71.667,279.167 68.761,279.167 63.747 L 279.167 55.828 278.542 55.539 C 278.198 55.380,277.877 55.197,277.828 55.132 C 277.660 54.910,275.217 53.865,274.192 53.577 C 273.628 53.419,273.167 53.231,273.167 53.159 C 273.167 53.011,270.124 52.263,268.500 52.012 C 266.868 51.760,264.100 51.676,262.414 51.827 M282.667 59.500 L 282.667 67.333 287.167 67.333 L 291.667 67.333 291.667 88.083 L 291.667 108.833 300.500 108.833 L 309.333 108.833 309.333 88.083 L 309.333 67.333 313.583 67.333 L 317.833 67.333 317.833 59.500 L 317.833 51.667 300.250 51.667 L 282.667 51.667 282.667 59.500 M321.500 80.333 L 321.500 109.000 336.667 109.000 L 351.833 109.000 351.833 101.333 L 351.833 93.667 345.250 93.667 L 338.667 93.667 338.667 90.833 L 338.667 88.000 344.833 88.000 L 351.000 88.000 351.000 80.333 L 351.000 72.667 344.917 72.667 L 338.833 72.667 338.833 69.917 L 338.833 67.167 345.250 67.167 L 351.667 67.167 351.667 59.417 L 351.667 51.667 336.583 51.667 L 321.500 51.667 321.500 80.333 M355.667 80.059 L 355.667 108.500 365.000 108.500 L 374.333 108.500 374.342 98.875 C 374.351 89.270,374.352 89.252,374.659 90.214 C 374.829 90.744,375.080 91.419,375.217 91.714 C 375.354 92.009,375.746 93.188,376.089 94.333 C 376.432 95.479,376.794 96.567,376.893 96.750 C 377.165 97.252,377.439 98.047,378.101 100.250 C 378.431 101.350,378.836 102.550,379.000 102.917 C 379.164 103.283,379.620 104.652,380.014 105.958 L 380.729 108.333 390.382 108.333 C 398.036 108.333,400.019 108.290,399.957 108.125 C 399.914 108.010,399.523 106.754,399.089 105.333 C 398.655 103.912,398.240 102.675,398.167 102.583 C 398.095 102.492,397.646 101.142,397.170 99.583 C 396.694 98.025,396.245 96.675,396.172 96.583 C 396.099 96.492,395.686 95.254,395.253 93.833 C 394.821 92.412,394.407 91.175,394.334 91.083 C 394.262 90.992,393.965 90.129,393.676 89.167 C 392.953 86.762,392.444 85.266,392.314 85.167 C 392.254 85.121,392.058 84.590,391.878 83.987 C 391.507 82.750,391.435 82.955,392.800 81.365 C 393.139 80.970,393.583 80.354,393.786 79.996 C 393.989 79.638,394.297 79.203,394.470 79.030 C 394.643 78.857,395.076 78.124,395.434 77.400 C 395.791 76.676,396.137 76.043,396.202 75.994 C 396.477 75.787,397.164 72.655,397.347 70.778 C 397.675 67.394,397.107 62.481,396.143 60.365 C 395.952 59.946,395.699 59.327,395.579 58.988 C 394.798 56.774,393.005 55.073,389.713 53.424 C 386.342 51.736,387.954 51.879,370.766 51.740 L 355.667 51.617 355.667 80.059 M376.786 67.251 C 379.657 68.104,380.716 71.564,378.636 73.297 C 378.337 73.546,377.953 73.887,377.782 74.055 C 377.429 74.404,376.086 74.896,375.042 75.060 L 374.333 75.171 374.333 70.980 L 374.333 66.790 375.147 66.898 C 375.594 66.958,376.332 67.117,376.786 67.251 M222.077 79.419 C 222.316 80.793,222.581 82.067,222.666 82.250 C 222.751 82.433,222.961 83.427,223.133 84.458 L 223.445 86.333 221.537 86.333 L 219.629 86.333 219.702 85.875 C 219.990 84.064,220.927 79.401,221.015 79.333 C 221.075 79.287,221.221 78.706,221.339 78.041 C 221.457 77.376,221.574 76.852,221.598 76.876 C 221.623 76.901,221.838 78.045,222.077 79.419 " stroke="none" fill="#000000" fill-rule="evenodd"></path><path id="path1" d="" stroke="none" fill="#993300" fill-rule="evenodd"></path><path id="path2" d="" stroke="none" fill="#ff0000" fill-rule="evenodd"></path><path id="path3" d="M86.417 0.256 C 82.612 0.641,77.685 1.469,77.031 1.834 C 76.876 1.920,75.962 2.182,75.000 2.416 C 72.452 3.035,71.582 3.281,70.966 3.555 C 70.664 3.689,69.367 4.154,68.083 4.589 C 66.800 5.023,65.637 5.471,65.500 5.585 C 65.362 5.698,64.950 5.886,64.583 6.001 C 64.217 6.116,63.017 6.642,61.917 7.170 C 60.817 7.698,59.395 8.365,58.756 8.654 C 58.118 8.942,57.556 9.233,57.506 9.301 C 57.457 9.369,56.704 9.788,55.833 10.233 C 54.962 10.677,54.100 11.173,53.917 11.335 C 53.733 11.497,53.272 11.785,52.891 11.977 C 51.588 12.630,47.060 15.685,44.500 17.637 C 41.795 19.701,41.139 20.241,38.699 22.417 C 36.320 24.539,32.466 28.648,30.949 30.680 C 30.635 31.100,30.210 31.625,30.003 31.847 C 29.435 32.455,27.181 35.670,26.887 36.289 C 26.745 36.589,26.565 36.833,26.488 36.833 C 26.411 36.833,26.146 37.190,25.899 37.625 C 25.652 38.060,25.120 38.959,24.716 39.621 C 23.397 41.784,22.775 42.979,20.653 47.437 C 19.886 49.048,19.837 49.000,22.254 49.000 L 24.342 49.000 24.504 48.542 C 24.594 48.290,24.749 47.941,24.850 47.767 C 24.951 47.593,25.365 46.660,25.770 45.693 C 26.175 44.727,26.608 43.819,26.733 43.676 C 26.858 43.534,27.258 42.817,27.622 42.083 C 27.986 41.350,28.632 40.212,29.058 39.554 C 29.485 38.896,29.833 38.291,29.833 38.209 C 29.833 38.127,30.080 37.765,30.382 37.405 C 30.684 37.045,31.184 36.349,31.493 35.860 C 31.802 35.370,32.139 34.883,32.243 34.776 C 32.347 34.670,32.824 34.058,33.302 33.417 C 33.780 32.775,34.414 31.983,34.711 31.657 C 35.007 31.331,35.535 30.712,35.883 30.282 L 36.517 29.500 43.075 29.500 L 49.634 29.500 49.819 30.031 C 50.105 30.852,50.413 31.096,52.315 32.015 C 54.352 32.999,54.327 32.974,54.331 34.107 C 54.334 35.222,54.105 35.481,52.250 36.459 C 49.439 37.941,50.470 39.517,53.636 38.577 C 54.111 38.436,54.500 38.258,54.500 38.182 C 54.500 37.841,57.709 36.820,59.057 36.733 C 60.537 36.637,62.000 36.366,62.000 36.188 C 62.000 36.126,62.281 35.928,62.625 35.746 C 62.969 35.565,63.504 35.248,63.815 35.042 C 65.458 33.950,65.937 35.278,64.491 36.917 C 64.203 37.243,63.352 38.674,62.954 39.500 C 62.844 39.729,62.669 40.006,62.566 40.115 C 62.462 40.224,62.027 40.974,61.598 41.781 C 61.170 42.589,60.592 43.663,60.315 44.167 C 60.039 44.671,59.661 45.458,59.476 45.915 C 59.291 46.373,59.086 46.785,59.020 46.832 C 58.870 46.937,58.167 48.580,58.167 48.823 C 58.167 48.938,58.858 49.000,60.146 49.000 L 62.126 49.000 62.334 48.458 C 62.449 48.160,62.880 47.206,63.293 46.337 C 63.707 45.468,64.189 44.419,64.366 44.007 C 64.543 43.594,64.744 43.218,64.812 43.170 C 64.880 43.122,65.299 42.408,65.741 41.583 C 66.184 40.758,66.714 39.858,66.919 39.583 C 67.124 39.308,67.497 38.709,67.748 38.251 C 68.000 37.793,68.365 37.227,68.561 36.993 C 68.757 36.759,69.065 36.290,69.246 35.951 C 69.871 34.780,70.667 35.392,70.667 37.042 C 70.667 38.060,70.896 38.711,71.585 39.650 C 72.041 40.271,72.100 40.783,71.809 41.588 C 71.573 42.241,71.728 42.915,72.225 43.389 C 73.745 44.841,73.370 46.170,71.250 46.840 C 69.909 47.265,69.000 47.872,69.000 48.343 C 69.000 48.666,69.273 48.669,94.095 48.627 L 119.191 48.583 119.804 47.896 C 120.141 47.518,120.642 46.936,120.917 46.601 C 121.347 46.078,121.555 45.972,122.417 45.841 C 124.819 45.476,125.833 44.910,125.833 43.935 C 125.833 42.800,127.926 42.250,129.814 42.890 C 131.425 43.435,132.039 43.444,133.188 42.939 C 133.680 42.722,134.590 42.491,135.208 42.426 C 136.523 42.287,136.515 42.085,135.291 44.550 C 134.387 46.368,133.501 48.470,133.501 48.797 C 133.500 48.961,133.936 49.000,135.374 48.964 L 137.247 48.917 137.391 48.131 C 137.469 47.699,138.191 46.049,138.994 44.464 L 140.454 41.583 141.269 41.481 C 143.108 41.251,145.000 39.908,145.000 38.834 C 145.000 38.574,144.944 38.336,144.875 38.306 C 144.678 38.218,144.165 36.633,144.166 36.113 C 144.167 35.524,147.109 31.455,148.617 29.958 L 149.078 29.500 175.539 29.500 C 190.093 29.500,202.000 29.543,202.000 29.595 C 202.000 29.722,201.727 29.976,200.875 30.641 C 200.201 31.167,200.167 31.238,200.167 32.072 C 200.167 32.726,200.077 33.051,199.816 33.349 C 197.067 36.485,195.823 39.994,196.561 42.532 C 196.711 43.047,196.833 43.965,196.833 44.573 C 196.833 47.437,199.447 49.471,201.350 48.089 C 201.662 47.863,202.094 47.549,202.310 47.391 C 202.687 47.117,202.735 47.120,203.394 47.469 C 204.620 48.119,205.167 47.895,205.167 46.742 C 205.167 45.675,205.442 45.094,206.132 44.706 L 206.751 44.358 207.417 44.762 C 208.873 45.643,209.621 45.294,210.590 43.280 C 211.527 41.337,212.532 40.538,214.083 40.504 C 214.358 40.498,214.996 40.268,215.500 39.994 C 217.104 39.121,217.441 39.010,219.064 38.819 C 223.342 38.314,225.351 38.734,227.287 40.535 C 227.858 41.066,228.398 41.500,228.487 41.500 C 228.895 41.500,229.986 43.361,229.889 43.892 C 229.657 45.159,227.480 45.975,226.262 45.251 C 223.640 43.691,223.293 43.653,221.936 44.770 C 221.421 45.194,221.000 45.600,221.000 45.672 C 221.000 45.744,220.422 45.997,219.716 46.235 L 218.433 46.666 217.613 46.238 C 217.162 46.002,216.634 45.656,216.439 45.468 C 215.514 44.581,214.209 44.425,213.557 45.125 C 212.781 45.957,211.500 48.062,211.500 48.505 C 211.500 48.609,235.511 48.667,278.917 48.667 L 346.333 48.667 346.330 48.208 C 346.324 47.526,345.814 46.548,344.831 45.335 C 344.349 44.741,343.769 43.953,343.543 43.585 C 342.766 42.324,341.148 40.922,339.592 40.162 L 338.139 39.452 336.450 39.562 C 335.521 39.623,334.687 39.747,334.597 39.837 C 334.109 40.325,332.613 39.596,331.936 38.540 C 330.852 36.848,329.676 36.348,328.068 36.896 C 327.633 37.044,327.261 37.147,327.243 37.125 C 327.224 37.102,326.874 36.558,326.464 35.917 C 326.055 35.275,325.596 34.647,325.444 34.521 C 325.291 34.395,325.167 34.219,325.167 34.130 C 325.167 34.040,324.582 33.206,323.868 32.275 C 323.153 31.345,322.398 30.340,322.190 30.042 L 321.811 29.500 338.377 29.500 L 354.944 29.500 356.264 31.059 C 357.970 33.075,358.533 33.776,359.242 34.770 C 360.441 36.452,362.290 39.285,362.817 40.250 C 363.117 40.800,363.462 41.362,363.582 41.500 C 363.702 41.637,364.183 42.537,364.650 43.500 C 365.118 44.462,365.569 45.362,365.652 45.500 C 365.865 45.855,366.593 47.634,366.828 48.375 L 367.026 49.000 369.096 49.000 C 371.005 49.000,371.167 48.976,371.167 48.690 C 371.167 48.251,369.759 44.871,369.492 44.667 C 369.432 44.621,369.069 43.912,368.686 43.091 C 368.303 42.270,367.888 41.482,367.765 41.341 C 367.642 41.199,367.280 40.596,366.962 40.000 C 366.294 38.751,364.540 35.983,363.951 35.250 C 363.730 34.975,363.353 34.437,363.114 34.055 C 362.607 33.245,360.398 30.388,359.521 29.409 C 359.188 29.038,358.504 28.257,358.000 27.674 C 355.466 24.742,349.651 19.433,347.083 17.708 C 346.717 17.461,346.173 17.054,345.875 16.802 C 345.313 16.326,344.386 15.692,342.097 14.214 C 341.356 13.736,340.672 13.279,340.577 13.198 C 340.221 12.898,336.208 10.519,335.083 9.941 C 334.442 9.612,333.460 9.088,332.902 8.776 C 332.343 8.465,331.611 8.119,331.275 8.008 C 330.939 7.897,330.558 7.701,330.430 7.573 C 330.301 7.444,329.346 6.991,328.306 6.567 C 327.267 6.142,326.154 5.664,325.833 5.505 C 325.512 5.345,324.275 4.888,323.083 4.488 C 321.892 4.087,320.879 3.713,320.833 3.656 C 320.747 3.548,317.105 2.519,315.500 2.149 C 314.996 2.032,314.508 1.883,314.417 1.817 C 314.105 1.592,310.829 0.981,307.090 0.450 L 304.583 0.095 196.583 0.066 C 108.412 0.042,88.186 0.077,86.417 0.256 M108.917 3.571 C 108.642 3.698,107.368 4.155,106.087 4.588 C 104.806 5.021,103.606 5.474,103.421 5.594 C 103.235 5.715,102.470 6.039,101.720 6.315 C 100.970 6.591,99.845 7.080,99.220 7.402 C 98.595 7.725,97.521 8.255,96.833 8.580 C 95.155 9.374,92.144 10.974,91.833 11.236 C 91.696 11.353,90.908 11.811,90.083 12.255 C 89.258 12.698,88.482 13.162,88.359 13.285 C 88.236 13.407,87.914 13.622,87.645 13.761 C 86.962 14.114,82.940 16.847,82.811 17.045 C 82.750 17.138,82.429 17.159,82.061 17.095 C 81.707 17.033,81.229 16.985,81.000 16.988 C 79.467 17.013,70.724 17.484,70.032 17.579 C 69.228 17.690,67.323 18.651,67.194 19.011 C 67.164 19.097,66.969 19.167,66.762 19.167 C 66.555 19.167,66.055 19.354,65.651 19.582 C 63.910 20.567,63.507 20.688,62.339 20.572 C 61.266 20.467,61.221 20.478,60.470 21.052 C 59.605 21.711,59.249 21.708,57.844 21.026 C 56.729 20.484,55.192 20.965,53.711 22.318 C 53.422 22.581,52.958 22.959,52.679 23.158 C 52.151 23.534,50.804 25.200,50.618 25.708 C 50.519 25.978,50.110 26.000,45.284 26.000 L 40.057 26.000 40.742 25.292 C 41.119 24.902,41.858 24.254,42.386 23.851 C 42.913 23.448,43.404 23.011,43.477 22.880 C 43.550 22.749,43.767 22.554,43.960 22.446 C 44.152 22.338,45.008 21.685,45.863 20.994 C 46.717 20.304,47.604 19.607,47.833 19.447 C 48.063 19.286,48.813 18.744,49.500 18.241 C 50.188 17.739,51.075 17.122,51.473 16.872 C 51.871 16.622,52.774 16.035,53.480 15.569 C 54.187 15.103,55.211 14.478,55.757 14.179 C 56.303 13.881,56.862 13.539,57.000 13.419 C 57.137 13.299,57.962 12.844,58.833 12.408 C 59.704 11.972,60.454 11.560,60.500 11.493 C 60.546 11.425,61.443 10.983,62.494 10.509 C 63.546 10.035,64.483 9.586,64.578 9.511 C 64.672 9.436,65.688 9.020,66.833 8.587 C 67.979 8.155,68.992 7.740,69.083 7.665 C 69.175 7.591,70.525 7.145,72.083 6.675 C 73.642 6.205,75.217 5.711,75.583 5.578 C 76.488 5.249,80.885 4.389,82.833 4.160 C 83.704 4.058,84.567 3.906,84.750 3.822 C 85.441 3.506,89.392 3.380,99.250 3.361 C 108.015 3.344,109.348 3.373,108.917 3.571 M146.126 3.513 C 145.966 3.606,144.619 4.095,143.132 4.600 C 141.645 5.105,140.347 5.586,140.247 5.669 C 140.147 5.753,139.208 6.165,138.162 6.585 C 137.116 7.006,136.220 7.407,136.171 7.476 C 136.123 7.545,135.821 7.704,135.500 7.828 C 134.197 8.332,126.936 12.248,126.000 12.951 C 125.771 13.124,125.021 13.596,124.333 14.001 C 123.646 14.405,122.789 14.983,122.428 15.285 C 122.068 15.586,121.707 15.833,121.626 15.833 C 121.489 15.833,120.609 16.451,120.005 16.970 C 119.865 17.091,119.083 17.682,118.268 18.284 L 116.786 19.378 115.591 19.277 C 114.935 19.222,114.136 19.067,113.816 18.934 C 113.089 18.630,111.331 18.423,110.739 18.571 C 108.829 19.051,107.099 23.127,108.408 24.065 C 109.230 24.653,109.684 25.213,109.632 25.574 C 109.584 25.913,109.512 25.917,102.250 25.946 C 98.217 25.962,95.010 25.937,95.125 25.891 C 95.709 25.652,94.910 24.712,93.493 23.970 C 92.757 23.584,92.204 23.117,91.563 22.339 C 90.108 20.575,89.782 20.417,87.596 20.417 L 85.755 20.417 85.528 19.944 C 85.269 19.404,85.100 19.582,87.400 17.972 C 89.177 16.728,92.370 14.670,93.417 14.093 C 93.875 13.840,94.362 13.536,94.500 13.417 C 95.027 12.960,102.453 9.312,104.387 8.560 C 105.503 8.126,106.454 7.726,106.500 7.670 C 106.546 7.614,107.483 7.285,108.583 6.940 C 109.683 6.594,111.126 6.126,111.788 5.901 C 114.113 5.111,119.719 4.031,123.394 3.665 C 124.206 3.584,124.912 3.477,124.963 3.426 C 125.014 3.375,129.862 3.336,135.736 3.338 C 143.050 3.342,146.325 3.397,146.126 3.513 M185.417 3.667 C 185.050 3.844,184.637 3.993,184.500 3.997 C 184.132 4.010,179.505 5.457,179.278 5.631 C 179.171 5.713,178.371 6.028,177.500 6.333 C 176.629 6.637,175.467 7.106,174.917 7.375 C 174.367 7.644,173.542 8.013,173.083 8.194 C 172.232 8.530,167.052 11.094,166.750 11.329 C 166.658 11.400,165.983 11.779,165.250 12.171 C 164.517 12.562,163.692 13.049,163.417 13.252 C 163.142 13.455,162.443 13.869,161.865 14.172 C 161.287 14.476,160.649 14.897,160.448 15.109 C 160.248 15.321,160.016 15.496,159.934 15.497 C 159.786 15.500,155.500 18.529,155.115 18.903 C 155.006 19.009,154.617 19.316,154.250 19.586 C 153.054 20.465,151.127 22.213,149.246 24.125 L 147.402 26.000 145.190 26.000 C 143.123 26.000,142.943 25.974,142.447 25.605 C 141.280 24.736,140.132 24.303,138.750 24.211 C 137.242 24.109,136.325 23.735,135.880 23.040 C 135.441 22.354,133.540 21.000,133.017 21.000 C 132.916 21.000,132.833 20.925,132.833 20.833 C 132.833 20.742,132.680 20.667,132.492 20.667 C 132.081 20.667,131.167 20.216,131.167 20.014 C 131.167 19.737,130.648 19.673,129.942 19.862 C 129.370 20.015,128.966 19.998,127.862 19.776 C 127.109 19.624,126.162 19.500,125.757 19.500 C 124.680 19.500,124.167 19.261,124.167 18.758 C 124.167 18.034,129.364 14.803,135.167 11.920 C 136.771 11.123,138.233 10.412,138.417 10.339 C 138.600 10.267,139.237 9.983,139.833 9.709 C 141.209 9.075,141.648 8.895,143.083 8.381 C 143.725 8.150,144.558 7.824,144.934 7.655 C 145.310 7.486,146.810 7.002,148.267 6.579 C 149.724 6.157,151.059 5.734,151.233 5.639 C 151.716 5.376,156.776 4.377,158.704 4.165 C 159.646 4.061,160.547 3.907,160.706 3.821 C 160.865 3.736,161.428 3.659,161.956 3.650 C 162.484 3.641,163.104 3.573,163.333 3.500 C 164.396 3.160,186.127 3.324,185.417 3.667 M229.500 3.637 C 232.232 4.008,235.189 4.501,237.250 4.928 C 238.442 5.175,239.604 5.416,239.833 5.463 C 240.063 5.511,240.287 5.597,240.333 5.655 C 240.379 5.712,241.054 5.937,241.833 6.153 C 244.110 6.786,246.401 7.524,246.609 7.692 C 246.715 7.777,247.015 7.912,247.276 7.992 C 248.327 8.313,250.623 9.198,251.249 9.524 C 251.614 9.714,252.289 10.016,252.749 10.195 C 254.090 10.717,259.071 13.230,259.217 13.460 C 259.291 13.575,259.647 13.820,260.009 14.005 C 260.722 14.369,260.854 14.789,260.398 15.245 C 260.103 15.540,260.245 15.597,258.621 14.530 C 257.679 13.911,256.570 13.858,255.833 14.396 C 255.512 14.631,255.065 14.956,254.840 15.119 C 254.398 15.439,252.719 15.509,252.522 15.216 C 252.312 14.904,250.365 14.500,249.071 14.500 C 247.352 14.500,246.825 14.666,245.871 15.506 C 245.438 15.888,244.858 16.316,244.583 16.457 C 243.170 17.182,243.505 18.085,246.124 20.617 C 246.982 21.447,247.689 22.277,247.752 22.529 C 247.885 23.064,248.936 24.333,249.245 24.333 C 249.766 24.333,249.804 25.385,249.296 25.741 C 248.627 26.209,243.948 26.114,243.622 25.625 C 242.997 24.687,239.492 21.393,237.007 19.409 C 234.833 17.673,230.041 14.357,228.833 13.753 C 228.512 13.592,228.100 13.329,227.917 13.168 C 227.733 13.006,226.943 12.540,226.161 12.131 C 225.379 11.723,224.530 11.251,224.274 11.084 C 224.019 10.917,223.141 10.464,222.324 10.079 C 221.507 9.694,220.744 9.302,220.628 9.209 C 220.416 9.039,218.829 8.350,217.585 7.888 C 217.220 7.752,216.882 7.585,216.835 7.516 C 216.750 7.392,213.675 6.167,213.448 6.167 C 213.383 6.167,213.012 6.019,212.623 5.838 C 211.587 5.355,210.672 5.043,208.221 4.333 C 207.014 3.984,205.889 3.617,205.721 3.517 C 205.322 3.281,227.708 3.393,229.500 3.637 M268.333 3.636 C 272.850 4.239,277.634 5.195,279.750 5.917 C 280.392 6.136,281.779 6.589,282.833 6.925 C 283.887 7.260,284.787 7.587,284.833 7.651 C 284.879 7.716,285.517 7.981,286.250 8.241 C 286.983 8.501,288.333 9.070,289.250 9.504 C 290.167 9.939,291.479 10.544,292.167 10.851 C 292.854 11.157,293.458 11.465,293.509 11.535 C 293.560 11.606,294.051 11.882,294.602 12.148 C 295.152 12.415,296.368 13.090,297.305 13.650 C 298.242 14.209,299.067 14.667,299.139 14.667 C 299.211 14.667,299.428 14.813,299.620 14.992 C 299.812 15.171,300.632 15.709,301.443 16.187 C 302.253 16.665,302.992 17.144,303.083 17.253 C 303.175 17.361,303.786 17.793,304.441 18.212 C 305.096 18.632,305.683 19.059,305.747 19.161 C 305.810 19.263,306.142 19.524,306.484 19.740 C 307.233 20.213,309.760 22.211,310.917 23.244 C 311.375 23.654,311.900 24.102,312.083 24.239 C 312.499 24.552,312.340 24.552,311.083 24.241 C 308.780 23.670,308.472 23.644,307.527 23.942 C 306.681 24.208,306.551 24.207,305.149 23.922 C 303.978 23.685,303.301 23.646,301.928 23.738 C 300.497 23.833,300.099 23.807,299.674 23.587 C 299.391 23.441,298.729 23.244,298.204 23.151 C 296.792 22.900,296.720 22.866,296.499 22.332 C 295.890 20.860,292.246 18.835,289.917 18.673 C 288.629 18.584,288.546 18.552,287.500 17.749 C 286.904 17.291,286.220 16.804,285.979 16.667 C 285.738 16.529,284.988 15.917,284.312 15.307 C 282.704 13.854,282.334 13.572,281.833 13.417 C 281.604 13.346,281.363 13.205,281.298 13.103 C 281.141 12.857,275.207 12.843,275.036 13.087 C 274.636 13.659,273.862 13.900,272.027 14.024 C 270.609 14.119,269.947 14.243,269.376 14.520 C 268.660 14.866,268.588 14.872,268.182 14.619 C 267.944 14.470,267.402 14.161,266.977 13.931 C 266.552 13.701,266.092 13.401,265.955 13.264 C 265.711 13.020,265.027 12.615,263.408 11.754 C 262.963 11.517,262.483 11.220,262.341 11.094 C 261.893 10.695,255.162 7.348,253.250 6.572 C 252.242 6.163,251.222 5.720,250.985 5.587 C 250.747 5.454,249.547 5.004,248.318 4.587 C 244.317 3.229,243.688 3.325,256.083 3.401 C 262.133 3.439,267.646 3.545,268.333 3.636 M303.996 3.518 C 305.510 3.619,306.825 3.759,306.917 3.829 C 307.008 3.899,307.496 4.006,308.000 4.067 C 310.531 4.373,315.567 5.354,316.250 5.674 C 316.433 5.760,317.108 5.985,317.750 6.175 C 320.378 6.950,322.255 7.555,322.333 7.654 C 322.379 7.711,323.092 8.006,323.917 8.310 C 326.095 9.111,334.028 12.933,334.333 13.328 C 334.413 13.431,335.505 14.074,336.587 14.655 C 336.865 14.804,337.352 15.123,337.671 15.363 C 337.989 15.603,338.540 15.961,338.894 16.158 C 339.667 16.587,342.350 18.452,343.167 19.127 C 343.488 19.393,344.162 19.889,344.667 20.231 C 345.171 20.573,346.071 21.265,346.667 21.768 C 347.262 22.272,348.238 23.085,348.833 23.574 C 349.429 24.064,350.251 24.810,350.660 25.232 L 351.403 26.000 335.135 26.000 L 318.866 26.000 316.475 23.672 C 315.160 22.391,313.858 21.137,313.583 20.885 C 312.508 19.899,308.269 16.668,306.667 15.612 C 306.162 15.280,305.600 14.902,305.417 14.773 C 304.270 13.967,301.608 12.309,300.833 11.918 C 300.329 11.664,299.879 11.399,299.833 11.328 C 299.787 11.258,298.962 10.801,298.000 10.313 C 297.037 9.825,296.151 9.330,296.030 9.213 C 295.909 9.096,295.743 9.000,295.661 9.000 C 295.580 9.000,294.291 8.410,292.798 7.689 C 291.305 6.969,289.783 6.283,289.417 6.167 C 289.050 6.050,288.390 5.774,287.949 5.553 C 287.509 5.332,286.126 4.814,284.878 4.401 C 283.629 3.988,282.489 3.581,282.345 3.497 C 281.965 3.275,300.638 3.293,303.996 3.518 M200.259 5.059 C 201.364 5.289,202.452 5.557,202.676 5.654 C 202.900 5.751,204.358 6.212,205.917 6.680 C 207.475 7.147,208.825 7.590,208.917 7.664 C 209.008 7.738,209.721 8.025,210.500 8.302 C 212.270 8.930,213.126 9.275,213.691 9.588 C 213.934 9.722,214.943 10.172,215.934 10.587 C 216.925 11.002,217.776 11.403,217.826 11.478 C 217.876 11.552,218.704 11.972,219.667 12.411 C 220.629 12.849,221.454 13.264,221.500 13.333 C 221.546 13.403,222.183 13.777,222.917 14.165 C 223.650 14.553,224.748 15.200,225.356 15.602 C 225.964 16.004,226.507 16.333,226.562 16.333 C 226.673 16.333,229.999 18.510,230.667 19.019 C 230.896 19.194,231.383 19.540,231.750 19.787 C 233.329 20.854,236.706 23.635,238.465 25.316 L 239.181 26.000 233.055 26.000 L 226.928 26.000 225.165 24.187 C 223.947 22.936,223.244 22.340,222.893 22.263 C 222.613 22.202,222.133 21.892,221.826 21.576 C 221.519 21.259,221.101 21.000,220.898 21.000 C 220.694 21.000,220.503 20.932,220.472 20.850 C 220.250 20.249,216.285 20.274,215.772 20.880 C 214.908 21.900,213.892 22.230,212.579 21.916 C 209.979 21.296,208.860 21.702,206.245 24.217 C 205.597 24.840,204.845 25.496,204.575 25.674 C 204.093 25.991,203.553 25.998,178.199 25.999 L 152.315 26.000 153.405 24.958 C 154.771 23.653,155.635 22.914,156.958 21.920 C 157.531 21.490,158.000 21.070,158.000 20.986 C 158.000 20.902,158.076 20.833,158.169 20.833 C 158.262 20.833,159.105 20.263,160.044 19.566 C 160.982 18.869,162.012 18.163,162.333 17.997 C 162.654 17.831,163.067 17.555,163.250 17.383 C 163.433 17.211,163.958 16.859,164.417 16.600 C 164.875 16.341,165.583 15.939,165.990 15.708 C 166.397 15.476,166.880 15.148,167.063 14.977 C 167.246 14.806,167.456 14.667,167.529 14.667 C 167.602 14.667,168.282 14.319,169.039 13.894 C 171.351 12.597,174.847 10.841,176.167 10.313 C 176.854 10.038,177.582 9.706,177.783 9.575 C 178.177 9.319,179.799 8.676,181.417 8.134 C 181.967 7.950,182.454 7.746,182.500 7.681 C 182.574 7.577,185.941 6.534,188.000 5.978 C 188.412 5.866,188.825 5.722,188.917 5.657 C 189.166 5.481,193.983 4.461,195.333 4.298 C 195.850 4.236,197.629 4.511,200.259 5.059 M106.204 30.145 C 103.451 34.058,103.275 34.223,102.267 33.840 C 101.864 33.686,101.844 33.614,101.798 32.132 L 101.750 30.583 100.792 30.533 C 100.265 30.506,99.833 30.412,99.833 30.325 C 99.833 30.238,99.692 30.167,99.518 30.167 C 99.345 30.167,99.027 30.019,98.810 29.839 C 98.417 29.511,98.417 29.511,102.538 29.506 L 106.659 29.500 106.204 30.145 M143.890 30.375 C 142.680 32.103,142.611 32.179,142.471 31.959 C 141.849 30.980,142.572 29.500,143.672 29.500 L 144.502 29.500 143.890 30.375 M243.833 31.100 C 244.521 31.968,245.316 32.957,245.601 33.298 C 245.886 33.638,246.326 34.254,246.580 34.667 C 246.834 35.079,247.195 35.585,247.382 35.791 C 247.815 36.266,247.805 36.272,246.457 36.376 C 245.508 36.448,245.264 36.410,244.916 36.136 C 243.686 35.169,241.783 34.800,239.998 35.183 C 239.084 35.379,238.378 35.069,237.372 34.033 C 237.164 33.818,236.510 33.424,235.918 33.155 C 235.188 32.824,234.764 32.517,234.600 32.199 C 234.466 31.941,233.826 31.228,233.176 30.615 L 231.994 29.500 237.289 29.511 L 242.583 29.522 243.833 31.100 M252.430 29.989 C 253.451 30.574,254.236 31.435,254.699 32.477 C 254.889 32.902,255.104 33.373,255.178 33.523 C 256.258 35.712,255.524 37.222,253.270 37.447 L 252.417 37.533 251.112 35.445 C 250.395 34.297,249.661 33.184,249.481 32.971 C 249.301 32.758,248.886 32.171,248.557 31.667 C 248.229 31.162,247.870 30.675,247.759 30.583 C 247.649 30.492,247.424 30.210,247.260 29.958 L 246.962 29.500 249.272 29.502 C 251.518 29.503,251.607 29.517,252.430 29.989 M317.870 30.208 C 318.879 31.372,320.304 33.190,320.964 34.155 C 321.305 34.652,321.747 35.240,321.948 35.460 C 322.442 36.001,322.279 36.335,321.524 36.327 C 320.731 36.318,320.097 35.763,319.109 34.212 C 318.579 33.382,318.208 32.975,317.913 32.901 C 317.004 32.673,316.033 29.500,316.872 29.500 C 317.116 29.500,317.479 29.758,317.870 30.208 M108.999 33.292 C 108.999 33.360,108.838 33.679,108.641 34.000 C 108.444 34.321,108.148 35.102,107.984 35.735 C 107.815 36.389,107.520 37.059,107.301 37.286 C 106.253 38.373,106.087 38.509,105.864 38.465 C 105.012 38.295,105.444 36.816,106.801 35.259 C 106.966 35.071,107.319 34.590,107.586 34.190 C 108.090 33.435,109.002 32.856,108.999 33.292 M21.500 111.399 C 21.500 111.579,22.504 113.901,22.618 113.986 C 22.691 114.039,23.083 114.775,23.490 115.619 C 23.897 116.464,24.403 117.357,24.615 117.604 C 24.827 117.850,25.000 118.111,25.000 118.183 C 25.000 118.364,26.364 120.545,26.606 120.750 C 26.714 120.842,27.078 121.354,27.415 121.889 C 27.753 122.424,28.153 122.987,28.306 123.140 C 28.458 123.293,28.734 123.656,28.918 123.947 C 29.102 124.239,29.565 124.838,29.946 125.280 C 30.328 125.722,31.188 126.721,31.857 127.500 C 34.272 130.312,40.021 135.862,41.500 136.810 C 41.729 136.957,42.009 137.202,42.121 137.354 C 42.234 137.505,42.742 137.906,43.251 138.243 C 43.760 138.581,44.305 138.988,44.463 139.147 C 44.621 139.307,45.275 139.803,45.917 140.250 C 46.558 140.697,47.121 141.109,47.167 141.164 C 47.212 141.219,47.737 141.579,48.333 141.962 C 48.929 142.346,49.717 142.875,50.083 143.138 C 50.450 143.401,51.163 143.856,51.667 144.150 C 52.171 144.444,52.958 144.919,53.417 145.205 C 54.533 145.903,55.892 146.639,58.000 147.687 C 58.962 148.165,59.788 148.613,59.834 148.681 C 59.881 148.749,60.556 149.077,61.334 149.409 C 62.113 149.741,63.200 150.234,63.750 150.503 C 64.865 151.049,68.262 152.333,68.593 152.333 C 68.710 152.333,68.831 152.400,68.861 152.481 C 68.920 152.637,71.281 153.414,73.250 153.926 C 73.892 154.093,74.454 154.276,74.500 154.332 C 74.695 154.572,80.232 155.741,82.535 156.029 C 83.432 156.141,84.167 156.281,84.167 156.341 C 84.167 156.905,86.450 156.917,196.167 156.914 C 311.375 156.912,304.261 156.958,308.083 156.192 C 308.542 156.101,309.704 155.900,310.667 155.747 C 312.834 155.403,316.658 154.546,316.902 154.350 C 317.002 154.271,317.346 154.150,317.667 154.083 C 318.681 153.871,322.575 152.644,322.784 152.471 C 322.894 152.380,323.307 152.204,323.701 152.081 C 325.176 151.618,326.457 151.119,327.781 150.493 C 328.531 150.137,329.619 149.648,330.198 149.406 C 330.776 149.164,331.335 148.896,331.438 148.812 C 331.541 148.728,332.179 148.391,332.855 148.062 C 334.266 147.375,338.542 145.008,338.667 144.844 C 338.712 144.783,339.369 144.374,340.125 143.935 C 340.881 143.495,341.541 143.068,341.592 142.987 C 341.642 142.905,342.194 142.540,342.818 142.176 C 343.442 141.811,344.132 141.324,344.351 141.093 C 344.571 140.862,344.826 140.671,344.919 140.670 C 345.106 140.666,348.196 138.333,349.750 137.022 C 352.648 134.576,354.144 133.206,356.374 130.957 C 357.726 129.594,359.034 128.203,359.281 127.865 C 359.528 127.527,359.886 127.095,360.076 126.905 C 360.935 126.046,364.680 121.052,365.070 120.246 C 365.204 119.969,365.487 119.538,365.698 119.290 C 365.910 119.041,366.421 118.180,366.833 117.377 C 367.246 116.574,367.641 115.874,367.711 115.822 C 367.885 115.693,369.332 112.469,369.333 112.208 C 369.333 112.094,369.408 112.000,369.500 112.000 C 369.592 112.000,369.667 111.850,369.667 111.667 C 369.667 111.354,369.556 111.333,367.850 111.333 L 366.033 111.333 364.954 113.458 C 363.168 116.976,360.345 121.093,357.457 124.392 C 357.068 124.836,356.680 125.324,356.593 125.475 C 356.507 125.626,356.071 126.106,355.624 126.542 L 354.811 127.333 350.426 127.333 L 346.041 127.333 346.312 126.542 C 346.461 126.106,346.626 125.712,346.678 125.667 C 346.730 125.621,347.002 125.096,347.282 124.500 C 347.562 123.904,348.009 123.192,348.276 122.917 C 350.996 120.116,350.968 116.091,348.227 115.769 C 347.531 115.687,347.136 115.540,346.834 115.250 C 346.385 114.820,345.196 114.333,344.596 114.333 C 344.396 114.333,344.162 114.271,344.075 114.195 C 343.988 114.119,343.600 113.966,343.212 113.856 C 342.703 113.711,342.333 113.440,341.879 112.881 C 341.533 112.456,341.070 111.933,340.851 111.720 L 340.451 111.333 334.264 111.333 L 328.076 111.333 327.163 111.958 L 326.250 112.583 324.333 112.578 C 323.035 112.574,322.284 112.498,322.006 112.344 C 321.346 111.978,318.630 111.894,318.295 112.229 C 318.146 112.378,317.954 112.500,317.869 112.500 C 317.604 112.500,316.167 113.849,316.167 114.097 C 316.167 114.227,316.094 114.333,316.004 114.333 C 315.915 114.333,315.726 114.557,315.585 114.831 C 315.054 115.857,313.764 116.128,313.032 115.366 C 311.408 113.675,308.310 114.661,307.938 116.987 C 307.793 117.895,307.292 118.432,306.290 118.758 C 304.502 119.339,303.554 120.599,303.707 122.190 C 303.862 123.810,304.950 124.618,307.837 125.259 C 308.889 125.492,309.975 125.783,310.250 125.905 C 310.525 126.027,311.142 126.254,311.622 126.409 C 314.470 127.331,314.603 127.322,299.032 127.328 C 287.702 127.332,284.839 127.291,284.937 127.125 C 285.005 127.010,285.523 126.317,286.089 125.583 C 286.656 124.850,287.217 124.063,287.337 123.833 C 287.456 123.604,287.645 123.342,287.755 123.250 C 288.052 123.004,290.383 119.387,290.890 118.386 C 291.130 117.912,291.406 117.475,291.502 117.416 C 291.745 117.265,294.333 111.964,294.333 111.617 C 294.333 111.366,294.110 111.333,292.425 111.333 L 290.516 111.333 290.347 111.942 C 290.255 112.278,289.726 113.360,289.173 114.349 C 288.620 115.337,288.167 116.192,288.167 116.248 C 288.167 116.496,283.944 122.812,283.650 123.005 C 283.576 123.054,283.306 123.404,283.049 123.785 C 282.793 124.165,282.035 125.119,281.365 125.904 L 280.146 127.333 267.438 127.333 L 254.729 127.333 254.799 126.362 C 254.854 125.599,254.792 125.239,254.510 124.686 L 254.151 123.982 254.575 123.085 C 254.809 122.591,255.000 122.070,255.000 121.927 C 255.000 121.784,255.060 121.667,255.133 121.667 C 255.408 121.667,255.334 120.439,255.018 119.774 C 254.333 118.329,254.470 117.570,255.671 116.175 C 256.425 115.299,256.710 114.824,256.813 114.268 C 256.922 113.690,257.157 113.316,257.893 112.557 C 258.410 112.022,258.833 111.529,258.833 111.459 C 258.833 111.390,250.508 111.333,240.333 111.333 C 230.158 111.333,221.833 111.394,221.833 111.469 C 221.833 111.544,222.092 111.728,222.408 111.879 C 222.863 112.096,223.023 112.303,223.173 112.868 C 223.277 113.262,223.538 113.771,223.754 114.000 C 223.969 114.229,224.260 114.639,224.401 114.911 C 224.675 115.443,226.296 117.167,226.521 117.167 C 226.781 117.167,227.133 118.086,227.255 119.084 C 227.429 120.498,227.534 120.703,228.679 121.873 C 229.242 122.447,229.814 123.179,229.951 123.500 C 230.657 125.153,231.383 126.504,231.774 126.895 L 232.212 127.333 190.564 127.322 L 148.917 127.311 148.083 126.310 C 147.625 125.759,146.999 125.033,146.692 124.696 C 146.385 124.359,145.961 123.821,145.751 123.500 C 145.541 123.179,145.192 122.737,144.976 122.518 C 144.760 122.299,144.321 121.757,144.000 121.314 C 143.679 120.871,142.913 119.813,142.297 118.963 C 141.681 118.112,141.070 117.304,140.939 117.167 C 140.809 117.029,140.437 116.467,140.114 115.917 C 139.791 115.367,139.390 114.763,139.222 114.575 C 138.737 114.033,138.040 112.640,137.913 111.958 L 137.796 111.333 135.898 111.333 C 134.854 111.333,134.000 111.402,134.000 111.486 C 134.000 111.759,134.874 113.403,135.276 113.888 C 135.491 114.147,135.667 114.431,135.667 114.518 C 135.667 114.606,136.175 115.444,136.795 116.381 C 137.416 117.317,138.032 118.296,138.164 118.556 C 138.297 118.816,138.576 119.214,138.786 119.440 C 138.995 119.666,139.170 119.903,139.174 119.967 C 139.179 120.031,139.589 120.646,140.087 121.333 C 140.585 122.021,141.286 122.996,141.644 123.500 C 142.003 124.004,142.463 124.604,142.667 124.833 C 142.872 125.063,143.157 125.438,143.303 125.667 C 143.448 125.896,143.783 126.365,144.048 126.708 L 144.528 127.333 133.370 127.333 L 122.213 127.333 122.101 126.245 C 121.958 124.844,122.176 124.062,123.004 123.015 C 123.368 122.554,123.667 122.108,123.667 122.025 C 123.667 121.942,123.789 121.772,123.939 121.648 C 124.283 121.362,124.706 120.382,125.129 118.888 C 125.440 117.788,125.680 117.381,127.273 115.258 C 127.906 114.413,129.333 111.814,129.333 111.505 C 129.333 111.193,91.590 111.274,91.331 111.586 C 91.083 111.885,91.049 113.155,91.286 113.309 C 91.587 113.506,91.833 114.139,91.833 114.718 C 91.833 115.851,92.678 117.500,93.259 117.500 C 93.469 117.500,93.628 117.844,94.083 119.287 C 94.314 120.022,94.523 120.289,95.428 121.009 C 96.485 121.850,96.500 121.874,96.500 122.680 C 96.500 123.454,96.558 123.562,97.570 124.664 C 98.165 125.312,98.688 126.052,98.749 126.330 C 98.810 126.605,98.928 126.872,99.013 126.925 C 99.601 127.288,98.236 127.333,86.679 127.333 L 74.191 127.333 72.965 125.875 C 72.291 125.073,71.517 124.121,71.245 123.759 C 70.973 123.397,70.574 122.909,70.358 122.675 C 70.143 122.441,69.850 122.025,69.709 121.750 C 69.567 121.475,69.209 120.950,68.914 120.583 C 67.266 118.535,64.215 113.209,63.925 111.875 L 63.807 111.333 61.726 111.333 C 59.645 111.333,59.644 111.333,59.758 111.708 C 59.915 112.227,61.918 116.050,62.618 117.167 C 63.832 119.105,66.347 122.906,66.472 122.992 C 66.544 123.042,66.966 123.630,67.411 124.298 C 67.856 124.966,68.302 125.566,68.402 125.632 C 68.502 125.697,68.658 125.874,68.750 126.025 C 68.842 126.175,69.091 126.532,69.303 126.816 L 69.689 127.333 53.108 127.333 L 36.527 127.333 35.805 126.484 C 35.408 126.017,34.738 125.248,34.317 124.776 C 33.895 124.303,33.482 123.793,33.400 123.642 C 33.317 123.490,32.968 123.040,32.623 122.642 C 31.757 121.641,30.583 120.014,29.513 118.333 C 29.017 117.554,28.561 116.879,28.500 116.833 C 28.439 116.787,28.144 116.263,27.844 115.667 C 27.545 115.071,27.053 114.133,26.752 113.583 C 26.450 113.033,26.115 112.302,26.006 111.958 L 25.807 111.333 23.654 111.333 C 22.469 111.333,21.500 111.363,21.500 111.399 M75.126 133.292 C 77.386 135.509,79.806 137.610,81.301 138.652 C 81.605 138.864,82.089 139.252,82.377 139.515 C 82.665 139.779,83.130 140.103,83.409 140.236 C 83.688 140.369,84.067 140.618,84.250 140.790 C 84.433 140.961,85.221 141.509,86.000 142.006 C 86.779 142.504,87.823 143.193,88.319 143.539 C 88.816 143.884,89.292 144.167,89.378 144.167 C 89.465 144.167,89.869 144.392,90.278 144.668 C 90.687 144.944,91.598 145.481,92.302 145.862 C 93.007 146.243,93.696 146.646,93.833 146.759 C 93.971 146.872,94.871 147.322,95.833 147.759 C 96.796 148.196,97.621 148.607,97.667 148.674 C 97.712 148.740,98.612 149.157,99.667 149.600 C 100.721 150.043,101.621 150.455,101.667 150.515 C 101.750 150.625,104.111 151.527,105.833 152.108 C 106.337 152.278,106.787 152.465,106.833 152.524 C 106.879 152.582,107.404 152.787,108.000 152.978 L 109.083 153.325 97.500 153.279 C 85.660 153.231,81.877 153.023,80.417 152.340 C 80.233 152.254,79.633 152.099,79.083 151.996 C 77.444 151.688,73.268 150.653,73.086 150.509 C 72.993 150.436,71.829 150.025,70.500 149.597 C 69.171 149.168,67.708 148.641,67.250 148.426 C 66.792 148.211,65.929 147.834,65.333 147.590 C 63.028 146.643,56.466 143.255,55.667 142.599 C 55.285 142.286,53.329 141.167,53.163 141.167 C 53.082 141.167,52.957 141.070,52.883 140.952 C 52.810 140.834,52.188 140.380,51.500 139.944 C 49.974 138.975,47.974 137.545,47.105 136.802 C 46.750 136.498,46.219 136.100,45.925 135.917 C 45.409 135.595,44.706 135.015,42.692 133.250 C 42.170 132.792,41.481 132.189,41.163 131.910 C 39.809 130.726,38.286 130.833,56.373 130.833 L 72.621 130.833 75.126 133.292 M100.903 131.252 C 101.485 131.792,102.297 132.194,103.750 132.666 C 105.600 133.266,106.946 134.473,107.655 136.167 C 108.145 137.339,108.235 137.442,108.972 137.681 C 109.880 137.976,110.462 138.445,110.579 138.979 C 110.767 139.836,111.710 140.524,113.087 140.810 C 115.949 141.402,115.915 141.387,117.246 142.631 C 118.981 144.251,119.708 144.584,121.500 144.581 C 123.592 144.577,124.670 143.941,124.170 143.006 C 123.926 142.550,123.956 142.561,125.196 143.375 C 125.789 143.765,126.569 144.233,126.929 144.417 C 127.289 144.600,127.633 144.819,127.694 144.903 C 127.877 145.156,136.568 149.667,136.874 149.667 C 136.942 149.667,137.692 149.993,138.541 150.392 C 139.389 150.790,140.908 151.405,141.917 151.757 C 142.925 152.110,143.787 152.442,143.833 152.495 C 143.879 152.549,144.367 152.740,144.917 152.921 L 145.917 153.250 136.000 153.297 C 122.416 153.362,119.627 153.101,112.250 151.069 C 111.700 150.917,111.063 150.754,110.833 150.705 C 110.604 150.657,110.379 150.566,110.333 150.504 C 110.287 150.442,109.162 150.034,107.833 149.597 C 106.504 149.160,105.267 148.709,105.083 148.594 C 104.900 148.479,104.248 148.186,103.636 147.942 C 101.135 146.946,95.223 143.908,92.969 142.459 C 92.447 142.125,91.724 141.699,91.361 141.514 C 90.998 141.329,90.600 141.081,90.476 140.964 C 90.099 140.607,87.849 139.167,87.669 139.167 C 87.576 139.167,87.500 139.102,87.500 139.022 C 87.500 138.943,86.973 138.524,86.328 138.092 C 85.684 137.659,84.917 137.087,84.625 136.820 C 84.332 136.552,84.041 136.333,83.978 136.333 C 83.825 136.333,81.047 134.064,79.519 132.690 C 78.842 132.081,78.242 131.546,78.185 131.500 C 77.335 130.806,76.887 130.833,89.039 130.833 L 100.451 130.833 100.903 131.252 M149.583 133.016 C 151.646 135.088,153.944 137.095,155.639 138.305 C 156.067 138.611,156.567 138.995,156.750 139.159 C 157.209 139.570,160.565 141.835,161.583 142.421 C 162.042 142.685,162.455 142.954,162.501 143.019 C 162.624 143.193,165.500 144.851,167.333 145.806 C 171.496 147.973,173.463 148.898,175.773 149.775 C 176.677 150.118,177.456 150.455,177.505 150.525 C 177.604 150.666,182.608 152.333,182.932 152.333 C 183.046 152.333,183.164 152.397,183.194 152.474 C 183.225 152.551,183.813 152.770,184.500 152.961 L 185.750 153.308 175.083 153.319 C 169.215 153.325,163.517 153.254,162.417 153.161 C 159.752 152.937,156.663 152.528,156.250 152.344 C 156.067 152.263,154.653 151.923,153.107 151.589 C 150.574 151.042,144.782 149.254,143.083 148.494 C 142.717 148.330,141.817 147.959,141.083 147.668 C 139.665 147.106,136.902 145.832,135.250 144.977 C 134.700 144.692,133.575 144.120,132.750 143.705 C 131.925 143.290,131.212 142.900,131.167 142.838 C 131.121 142.776,130.483 142.398,129.750 141.997 C 129.017 141.596,127.892 140.921,127.250 140.497 C 126.608 140.073,125.848 139.582,125.560 139.405 C 123.637 138.222,123.167 137.830,123.167 137.408 C 123.167 137.008,122.914 136.358,122.683 136.167 C 121.345 135.055,121.177 134.009,122.167 132.936 C 122.721 132.335,122.833 132.096,122.833 131.523 L 122.833 130.833 135.125 130.836 L 147.417 130.839 149.583 133.016 M235.544 131.625 C 235.749 132.060,235.963 132.454,236.021 132.500 C 236.418 132.818,236.336 133.657,235.886 133.893 C 235.628 134.029,235.126 134.408,234.771 134.736 C 234.415 135.065,234.096 135.333,234.061 135.333 C 234.026 135.333,233.425 135.765,232.727 136.292 C 230.904 137.668,228.952 139.006,227.417 139.933 C 226.683 140.376,225.981 140.838,225.856 140.960 C 225.731 141.082,225.168 141.413,224.606 141.696 C 224.043 141.980,223.177 142.471,222.681 142.788 C 222.184 143.105,221.284 143.609,220.681 143.907 C 220.077 144.205,219.358 144.573,219.083 144.724 C 218.234 145.191,213.762 147.281,213.328 147.414 C 212.702 147.606,210.969 148.315,210.500 148.571 C 210.271 148.696,208.958 149.152,207.583 149.585 C 206.208 150.017,205.008 150.429,204.917 150.499 C 204.730 150.643,202.090 151.315,199.379 151.909 C 198.391 152.126,197.246 152.390,196.833 152.496 C 196.080 152.689,194.246 152.588,193.917 152.335 C 193.825 152.264,193.112 152.085,192.333 151.936 C 190.210 151.530,186.591 150.613,186.528 150.464 C 186.497 150.392,186.385 150.333,186.278 150.333 C 186.001 150.334,180.951 148.655,180.750 148.497 C 180.658 148.424,179.871 148.087,179.000 147.748 C 178.129 147.409,176.817 146.844,176.083 146.494 C 175.350 146.144,174.188 145.589,173.500 145.261 C 170.946 144.043,165.588 141.088,165.163 140.663 C 165.005 140.505,164.423 140.134,163.869 139.839 C 163.316 139.544,162.723 139.179,162.551 139.027 C 161.997 138.537,160.189 137.333,160.008 137.333 C 159.912 137.333,159.833 137.275,159.833 137.203 C 159.833 137.132,159.409 136.776,158.890 136.412 C 158.371 136.048,157.640 135.480,157.265 135.151 C 156.890 134.821,156.459 134.483,156.307 134.401 C 155.990 134.228,154.098 132.586,153.014 131.542 L 152.278 130.833 193.725 130.833 L 235.171 130.833 235.544 131.625 M276.667 130.964 C 276.667 131.397,270.986 135.996,267.951 138.019 C 267.317 138.441,266.750 138.857,266.691 138.943 C 266.632 139.029,265.946 139.468,265.167 139.919 C 264.387 140.370,263.648 140.838,263.523 140.959 C 263.398 141.081,262.927 141.367,262.476 141.595 C 262.025 141.824,261.260 142.264,260.777 142.573 C 260.294 142.882,259.303 143.433,258.574 143.797 C 257.846 144.161,256.800 144.688,256.250 144.968 C 254.695 145.760,251.349 147.333,251.221 147.333 C 251.033 147.333,248.424 148.407,248.333 148.522 C 248.287 148.580,247.050 149.014,245.583 149.486 C 244.117 149.958,242.692 150.447,242.417 150.571 C 241.949 150.784,237.566 151.838,236.083 152.095 C 235.717 152.158,235.342 152.268,235.250 152.338 C 235.045 152.495,231.610 152.944,228.917 153.165 C 227.817 153.256,222.154 153.325,216.333 153.319 L 205.750 153.308 207.000 152.961 C 207.688 152.771,208.287 152.560,208.333 152.493 C 208.379 152.426,209.354 152.092,210.500 151.751 C 211.646 151.410,213.129 150.876,213.795 150.565 C 214.462 150.254,215.065 150.000,215.134 150.000 C 215.351 150.000,218.245 148.794,218.333 148.667 C 218.379 148.601,219.260 148.192,220.291 147.758 C 221.323 147.324,222.202 146.911,222.246 146.839 C 222.290 146.768,223.114 146.321,224.076 145.845 C 225.039 145.369,225.870 144.909,225.923 144.823 C 225.976 144.737,226.409 144.482,226.885 144.254 C 227.361 144.027,228.365 143.446,229.117 142.962 C 229.869 142.479,230.807 141.876,231.201 141.622 C 232.502 140.784,234.418 139.427,235.314 138.708 C 235.799 138.319,236.247 138.000,236.309 138.000 C 236.371 138.000,236.832 137.625,237.333 137.167 C 237.835 136.708,238.290 136.333,238.345 136.333 C 238.508 136.333,239.878 137.851,240.549 138.776 C 242.334 141.237,246.417 139.769,248.606 135.880 C 249.426 134.423,250.758 133.475,252.510 133.101 C 253.308 132.930,254.071 132.274,254.328 131.536 L 254.573 130.833 265.620 130.833 C 271.696 130.833,276.667 130.892,276.667 130.964 M313.038 131.233 C 313.147 131.805,310.468 134.205,306.500 137.088 C 305.446 137.855,304.357 138.665,304.081 138.890 C 303.804 139.114,303.115 139.570,302.548 139.902 C 301.982 140.233,301.417 140.606,301.293 140.731 C 301.169 140.855,300.434 141.318,299.659 141.760 C 298.884 142.201,298.100 142.688,297.917 142.841 C 297.733 142.994,296.946 143.438,296.167 143.828 C 295.387 144.218,294.637 144.629,294.500 144.742 C 294.172 145.012,289.610 147.231,288.470 147.674 C 287.982 147.864,287.246 148.191,286.833 148.402 C 286.421 148.613,284.996 149.143,283.667 149.581 C 282.337 150.020,281.173 150.438,281.079 150.511 C 280.886 150.663,276.766 151.713,275.250 151.997 C 274.700 152.100,274.100 152.252,273.917 152.336 C 273.460 152.543,270.365 152.961,267.767 153.165 C 266.585 153.257,261.073 153.331,255.517 153.328 L 245.417 153.322 246.417 152.978 C 246.967 152.789,247.454 152.578,247.500 152.510 C 247.546 152.441,247.808 152.330,248.083 152.262 C 248.932 152.055,252.236 150.795,252.500 150.578 C 252.637 150.465,252.938 150.316,253.167 150.247 C 253.834 150.045,256.574 148.816,256.666 148.678 C 256.712 148.608,257.537 148.197,258.500 147.763 C 259.462 147.330,260.362 146.877,260.500 146.756 C 260.637 146.636,261.442 146.187,262.287 145.760 C 263.133 145.332,263.869 144.910,263.924 144.822 C 263.978 144.734,264.336 144.504,264.720 144.311 C 265.103 144.118,266.054 143.530,266.833 143.005 C 267.612 142.479,268.475 141.932,268.750 141.789 C 269.025 141.646,269.406 141.381,269.596 141.201 C 269.787 141.021,270.274 140.665,270.680 140.409 C 271.528 139.874,274.227 137.864,274.812 137.331 C 275.029 137.133,275.592 136.652,276.062 136.262 C 277.545 135.034,278.158 134.464,279.978 132.627 L 281.750 130.837 297.356 130.835 L 312.961 130.833 313.038 131.233 M351.167 131.165 C 351.070 131.348,350.598 131.798,350.120 132.165 C 349.641 132.533,348.688 133.320,348.000 133.914 C 347.313 134.509,346.275 135.352,345.695 135.789 C 345.115 136.226,344.200 136.921,343.662 137.333 C 341.592 138.920,337.673 141.568,336.541 142.146 C 336.171 142.335,335.767 142.585,335.642 142.703 C 335.429 142.905,335.037 143.133,333.083 144.190 C 331.193 145.213,326.838 147.325,325.750 147.746 C 325.108 147.995,324.432 148.294,324.247 148.411 C 324.062 148.528,322.712 149.018,321.247 149.501 C 319.782 149.983,318.508 150.437,318.415 150.509 C 318.236 150.649,314.092 151.674,312.417 151.994 C 311.867 152.098,311.267 152.255,311.083 152.342 C 309.677 153.009,305.823 153.219,294.000 153.273 L 282.417 153.326 283.500 152.980 C 284.096 152.789,284.670 152.562,284.776 152.476 C 284.881 152.390,285.181 152.255,285.442 152.176 C 286.615 151.821,289.172 150.827,290.083 150.373 C 290.633 150.099,291.271 149.817,291.500 149.747 C 292.198 149.534,297.108 147.074,298.216 146.381 C 298.565 146.164,299.041 145.913,299.275 145.824 C 299.509 145.735,300.087 145.412,300.559 145.106 C 301.031 144.800,301.904 144.264,302.500 143.915 C 303.096 143.566,303.712 143.171,303.869 143.037 C 304.026 142.903,304.605 142.521,305.156 142.188 C 306.482 141.388,309.176 139.521,309.537 139.151 C 309.695 138.990,310.240 138.581,310.749 138.243 C 311.258 137.906,311.766 137.501,311.879 137.344 C 311.991 137.186,312.209 136.988,312.363 136.904 C 312.737 136.698,314.455 135.192,316.009 133.708 C 317.958 131.846,319.334 132.036,319.560 134.197 C 319.691 135.448,320.267 136.282,321.267 136.667 C 321.625 136.804,322.244 137.159,322.645 137.454 C 324.006 138.460,326.238 138.466,327.600 137.466 C 328.057 137.130,328.787 136.766,329.221 136.657 C 329.826 136.504,330.176 136.272,330.714 135.665 C 331.598 134.667,332.383 134.272,334.142 133.941 C 335.657 133.655,336.269 133.270,337.822 131.625 L 338.569 130.833 344.957 130.833 C 351.284 130.833,351.343 130.837,351.167 131.165 " stroke="none" fill="#f58220" fill-rule="evenodd"></path><path id="path4" d="" stroke="none" fill="#ffff00" fill-rule="evenodd"></path></g></svg>